<?xml version="1.0" encoding="UTF-8" standalone="no"?>
<!DOCTYPE svg PUBLIC "-//W3C//DTD SVG 1.1//EN"
 "http://www.w3.org/Graphics/SVG/1.1/DTD/svg11.dtd">
<!-- Generated by graphviz version 2.26.3 (20100126.1600)
 -->
<!-- Title: controllers_diagram Pages: 1 -->
<svg width="1166pt" height="1373pt"
 viewBox="0.00 0.00 1166.00 1372.84" xmlns="http://www.w3.org/2000/svg" xmlns:xlink="http://www.w3.org/1999/xlink">
<g id="graph1" class="graph" transform="scale(1 1) rotate(0) translate(4 1368.84)">
<title>controllers_diagram</title>
<polygon fill="white" stroke="white" points="-4,5 -4,-1368.84 1163,-1368.84 1163,5 -4,5"/>
<!-- _diagram_info -->
<g id="node1" class="node"><title>_diagram_info</title>
<text text-anchor="start" x="955" y="-831.3" font-family="Times Roman,serif" font-size="13.00">Controllers diagram</text>
<text text-anchor="start" x="955" y="-815.3" font-family="Times Roman,serif" font-size="13.00">Date: Jun 17 2014 &#45; 20:27</text>
<text text-anchor="start" x="955" y="-799.3" font-family="Times Roman,serif" font-size="13.00">Generated by RailRoady 1.1.1</text>
<text text-anchor="start" x="955" y="-783.3" font-family="Times Roman,serif" font-size="13.00">http://railroady.prestonlee.com</text>
</g>
<!-- Admin::AdminController -->
<g id="node2" class="node"><title>Admin::AdminController</title>
<polyline fill="none" stroke="black" points="328.201,-911.77 551.201,-911.77 "/>
<path fill="none" stroke="black" d="M551.201,-911.77C557.201,-911.77 563.201,-917.77 563.201,-923.77"/>
<polyline fill="none" stroke="black" points="563.201,-923.77 563.201,-1032.77 "/>
<path fill="none" stroke="black" d="M563.201,-1032.77C563.201,-1038.77 557.201,-1044.77 551.201,-1044.77"/>
<polyline fill="none" stroke="black" points="551.201,-1044.77 328.201,-1044.77 "/>
<path fill="none" stroke="black" d="M328.201,-1044.77C322.201,-1044.77 316.201,-1038.77 316.201,-1032.77"/>
<polyline fill="none" stroke="black" points="316.201,-1032.77 316.201,-923.77 "/>
<path fill="none" stroke="black" d="M316.201,-923.77C316.201,-917.77 322.201,-911.77 328.201,-911.77"/>
<text text-anchor="middle" x="439.701" y="-1028.17" font-family="Times Roman,serif" font-size="14.00">Admin::AdminController</text>
<polyline fill="none" stroke="black" points="316.201,-1019.77 563.201,-1019.77 "/>
<text text-anchor="start" x="324.201" y="-1003.17" font-family="Times Roman,serif" font-size="14.00">_callback_before_141</text>
<text text-anchor="start" x="324.201" y="-986.17" font-family="Times Roman,serif" font-size="14.00">_one_time_conditions_valid_142?</text>
<text text-anchor="start" x="324.201" y="-969.17" font-family="Times Roman,serif" font-size="14.00">index</text>
<polyline fill="none" stroke="black" points="316.201,-960.77 563.201,-960.77 "/>
<polyline fill="none" stroke="black" points="316.201,-936.77 563.201,-936.77 "/>
<text text-anchor="start" x="324.201" y="-920.17" font-family="Times Roman,serif" font-size="14.00">_layout</text>
</g>
<!-- Admin::UsersController -->
<g id="node3" class="node"><title>Admin::UsersController</title>
<polyline fill="none" stroke="black" points="618.293,-1162.34 770.293,-1162.34 "/>
<path fill="none" stroke="black" d="M770.293,-1162.34C776.293,-1162.34 782.293,-1168.34 782.293,-1174.34"/>
<polyline fill="none" stroke="black" points="782.293,-1174.34 782.293,-1351.34 "/>
<path fill="none" stroke="black" d="M782.293,-1351.34C782.293,-1357.34 776.293,-1363.34 770.293,-1363.34"/>
<polyline fill="none" stroke="black" points="770.293,-1363.34 618.293,-1363.34 "/>
<path fill="none" stroke="black" d="M618.293,-1363.34C612.293,-1363.34 606.293,-1357.34 606.293,-1351.34"/>
<polyline fill="none" stroke="black" points="606.293,-1351.34 606.293,-1174.34 "/>
<path fill="none" stroke="black" d="M606.293,-1174.34C606.293,-1168.34 612.293,-1162.34 618.293,-1162.34"/>
<text text-anchor="middle" x="694.293" y="-1346.74" font-family="Times Roman,serif" font-size="14.00">Admin::UsersController</text>
<polyline fill="none" stroke="black" points="606.293,-1338.34 782.293,-1338.34 "/>
<text text-anchor="start" x="614.293" y="-1321.74" font-family="Times Roman,serif" font-size="14.00">create</text>
<text text-anchor="start" x="614.293" y="-1304.74" font-family="Times Roman,serif" font-size="14.00">destroy</text>
<text text-anchor="start" x="614.293" y="-1287.74" font-family="Times Roman,serif" font-size="14.00">edit</text>
<text text-anchor="start" x="614.293" y="-1270.74" font-family="Times Roman,serif" font-size="14.00">index</text>
<text text-anchor="start" x="614.293" y="-1253.74" font-family="Times Roman,serif" font-size="14.00">new</text>
<text text-anchor="start" x="614.293" y="-1236.74" font-family="Times Roman,serif" font-size="14.00">show</text>
<text text-anchor="start" x="614.293" y="-1219.74" font-family="Times Roman,serif" font-size="14.00">update</text>
<polyline fill="none" stroke="black" points="606.293,-1211.34 782.293,-1211.34 "/>
<polyline fill="none" stroke="black" points="606.293,-1187.34 782.293,-1187.34 "/>
<text text-anchor="start" x="614.293" y="-1170.74" font-family="Times Roman,serif" font-size="14.00">_layout</text>
</g>
<!-- Admin::AdminController&#45;&gt;Admin::UsersController -->
<g id="edge4" class="edge"><title>Admin::AdminController&#45;&gt;Admin::UsersController</title>
<path fill="none" stroke="black" d="M499.392,-1044.99C531.211,-1080.55 570.97,-1124.99 606.264,-1164.44"/>
</g>
<!-- ApplicationController -->
<g id="node4" class="node"><title>ApplicationController</title>
<polyline fill="none" stroke="black" points="329.3,-525.909 552.3,-525.909 "/>
<path fill="none" stroke="black" d="M552.3,-525.909C558.3,-525.909 564.3,-531.909 564.3,-537.909"/>
<polyline fill="none" stroke="black" points="564.3,-537.909 564.3,-765.909 "/>
<path fill="none" stroke="black" d="M564.3,-765.909C564.3,-771.909 558.3,-777.909 552.3,-777.909"/>
<polyline fill="none" stroke="black" points="552.3,-777.909 329.3,-777.909 "/>
<path fill="none" stroke="black" d="M329.3,-777.909C323.3,-777.909 317.3,-771.909 317.3,-765.909"/>
<polyline fill="none" stroke="black" points="317.3,-765.909 317.3,-537.909 "/>
<path fill="none" stroke="black" d="M317.3,-537.909C317.3,-531.909 323.3,-525.909 329.3,-525.909"/>
<text text-anchor="middle" x="440.8" y="-761.309" font-family="Times Roman,serif" font-size="14.00">ApplicationController</text>
<polyline fill="none" stroke="black" points="317.3,-752.909 564.3,-752.909 "/>
<text text-anchor="start" x="325.3" y="-736.309" font-family="Times Roman,serif" font-size="14.00">_one_time_conditions_valid_136?</text>
<text text-anchor="start" x="325.3" y="-719.309" font-family="Times Roman,serif" font-size="14.00">_one_time_conditions_valid_138?</text>
<text text-anchor="start" x="325.3" y="-702.309" font-family="Times Roman,serif" font-size="14.00">_one_time_conditions_valid_140?</text>
<text text-anchor="start" x="325.3" y="-685.309" font-family="Times Roman,serif" font-size="14.00">check_permissions</text>
<text text-anchor="start" x="325.3" y="-668.309" font-family="Times Roman,serif" font-size="14.00">login_required</text>
<text text-anchor="start" x="325.3" y="-651.309" font-family="Times Roman,serif" font-size="14.00">set_locale</text>
<polyline fill="none" stroke="black" points="317.3,-642.909 564.3,-642.909 "/>
<polyline fill="none" stroke="black" points="317.3,-618.909 564.3,-618.909 "/>
<text text-anchor="start" x="325.3" y="-602.309" font-family="Times Roman,serif" font-size="14.00">_layout</text>
<text text-anchor="start" x="325.3" y="-585.309" font-family="Times Roman,serif" font-size="14.00">get_current_user</text>
<text text-anchor="start" x="325.3" y="-568.309" font-family="Times Roman,serif" font-size="14.00">render_403</text>
<text text-anchor="start" x="325.3" y="-551.309" font-family="Times Roman,serif" font-size="14.00">render_404</text>
<text text-anchor="start" x="325.3" y="-534.309" font-family="Times Roman,serif" font-size="14.00">render_error</text>
</g>
<!-- ApplicationController&#45;&gt;Admin::AdminController -->
<g id="edge2" class="edge"><title>ApplicationController&#45;&gt;Admin::AdminController</title>
<path fill="none" stroke="black" d="M440.375,-778.088C440.222,-823.649 440.055,-873.271 439.925,-911.712"/>
</g>
<!-- GroupsController -->
<g id="node5" class="node"><title>GroupsController</title>
<polyline fill="none" stroke="black" points="72.3825,-1159.93 295.383,-1159.93 "/>
<path fill="none" stroke="black" d="M295.383,-1159.93C301.383,-1159.93 307.383,-1165.93 307.383,-1171.93"/>
<polyline fill="none" stroke="black" points="307.383,-1171.93 307.383,-1348.93 "/>
<path fill="none" stroke="black" d="M307.383,-1348.93C307.383,-1354.93 301.383,-1360.93 295.383,-1360.93"/>
<polyline fill="none" stroke="black" points="295.383,-1360.93 72.3825,-1360.93 "/>
<path fill="none" stroke="black" d="M72.3825,-1360.93C66.3825,-1360.93 60.3825,-1354.93 60.3825,-1348.93"/>
<polyline fill="none" stroke="black" points="60.3825,-1348.93 60.3825,-1171.93 "/>
<path fill="none" stroke="black" d="M60.3825,-1171.93C60.3825,-1165.93 66.3825,-1159.93 72.3825,-1159.93"/>
<text text-anchor="middle" x="183.883" y="-1344.33" font-family="Times Roman,serif" font-size="14.00">GroupsController</text>
<polyline fill="none" stroke="black" points="60.3825,-1335.93 307.383,-1335.93 "/>
<text text-anchor="start" x="68.3825" y="-1319.33" font-family="Times Roman,serif" font-size="14.00">_callback_before_143</text>
<text text-anchor="start" x="68.3825" y="-1302.33" font-family="Times Roman,serif" font-size="14.00">_one_time_conditions_valid_144?</text>
<text text-anchor="start" x="68.3825" y="-1285.33" font-family="Times Roman,serif" font-size="14.00">create</text>
<text text-anchor="start" x="68.3825" y="-1268.33" font-family="Times Roman,serif" font-size="14.00">destroy</text>
<text text-anchor="start" x="68.3825" y="-1251.33" font-family="Times Roman,serif" font-size="14.00">index</text>
<text text-anchor="start" x="68.3825" y="-1234.33" font-family="Times Roman,serif" font-size="14.00">new</text>
<text text-anchor="start" x="68.3825" y="-1217.33" font-family="Times Roman,serif" font-size="14.00">show</text>
<polyline fill="none" stroke="black" points="60.3825,-1208.93 307.383,-1208.93 "/>
<polyline fill="none" stroke="black" points="60.3825,-1184.93 307.383,-1184.93 "/>
<text text-anchor="start" x="68.3825" y="-1168.33" font-family="Times Roman,serif" font-size="14.00">_layout</text>
</g>
<!-- ApplicationController&#45;&gt;GroupsController -->
<g id="edge6" class="edge"><title>ApplicationController&#45;&gt;GroupsController</title>
<path fill="none" stroke="black" d="M374.448,-778.217C353.784,-819.334 331.566,-865.484 313.001,-908.57 277.145,-991.784 242.094,-1088.58 217.58,-1159.56"/>
</g>
<!-- HomeController -->
<g id="node6" class="node"><title>HomeController</title>
<polyline fill="none" stroke="black" points="719.116,-852.197 820.116,-852.197 "/>
<path fill="none" stroke="black" d="M820.116,-852.197C826.116,-852.197 832.116,-858.197 832.116,-864.197"/>
<polyline fill="none" stroke="black" points="832.116,-864.197 832.116,-939.197 "/>
<path fill="none" stroke="black" d="M832.116,-939.197C832.116,-945.197 826.116,-951.197 820.116,-951.197"/>
<polyline fill="none" stroke="black" points="820.116,-951.197 719.116,-951.197 "/>
<path fill="none" stroke="black" d="M719.116,-951.197C713.116,-951.197 707.116,-945.197 707.116,-939.197"/>
<polyline fill="none" stroke="black" points="707.116,-939.197 707.116,-864.197 "/>
<path fill="none" stroke="black" d="M707.116,-864.197C707.116,-858.197 713.116,-852.197 719.116,-852.197"/>
<text text-anchor="middle" x="769.616" y="-934.597" font-family="Times Roman,serif" font-size="14.00">HomeController</text>
<polyline fill="none" stroke="black" points="707.116,-926.197 832.116,-926.197 "/>
<text text-anchor="start" x="715.116" y="-909.597" font-family="Times Roman,serif" font-size="14.00">index</text>
<polyline fill="none" stroke="black" points="707.116,-901.197 832.116,-901.197 "/>
<polyline fill="none" stroke="black" points="707.116,-877.197 832.116,-877.197 "/>
<text text-anchor="start" x="715.116" y="-860.597" font-family="Times Roman,serif" font-size="14.00">_layout</text>
</g>
<!-- ApplicationController&#45;&gt;HomeController -->
<g id="edge8" class="edge"><title>ApplicationController&#45;&gt;HomeController</title>
<path fill="none" stroke="black" d="M564.643,-745.987C613.068,-782.774 666.501,-823.365 706.668,-853.878"/>
</g>
<!-- QuestionsController -->
<g id="node7" class="node"><title>QuestionsController</title>
<polyline fill="none" stroke="black" points="45.9392,-845.236 176.939,-845.236 "/>
<path fill="none" stroke="black" d="M176.939,-845.236C182.939,-845.236 188.939,-851.236 188.939,-857.236"/>
<polyline fill="none" stroke="black" points="188.939,-857.236 188.939,-932.236 "/>
<path fill="none" stroke="black" d="M188.939,-932.236C188.939,-938.236 182.939,-944.236 176.939,-944.236"/>
<polyline fill="none" stroke="black" points="176.939,-944.236 45.9392,-944.236 "/>
<path fill="none" stroke="black" d="M45.9392,-944.236C39.9392,-944.236 33.9392,-938.236 33.9392,-932.236"/>
<polyline fill="none" stroke="black" points="33.9392,-932.236 33.9392,-857.236 "/>
<path fill="none" stroke="black" d="M33.9392,-857.236C33.9392,-851.236 39.9392,-845.236 45.9392,-845.236"/>
<text text-anchor="middle" x="111.439" y="-927.636" font-family="Times Roman,serif" font-size="14.00">QuestionsController</text>
<polyline fill="none" stroke="black" points="33.9392,-919.236 188.939,-919.236 "/>
<text text-anchor="start" x="41.9392" y="-902.636" font-family="Times Roman,serif" font-size="14.00">update</text>
<polyline fill="none" stroke="black" points="33.9392,-894.236 188.939,-894.236 "/>
<polyline fill="none" stroke="black" points="33.9392,-870.236 188.939,-870.236 "/>
<text text-anchor="start" x="41.9392" y="-853.636" font-family="Times Roman,serif" font-size="14.00">_layout</text>
</g>
<!-- ApplicationController&#45;&gt;QuestionsController -->
<g id="edge10" class="edge"><title>ApplicationController&#45;&gt;QuestionsController</title>
<path fill="none" stroke="black" d="M317.221,-743.019C270.31,-777.606 218.645,-815.696 178.818,-845.059"/>
</g>
<!-- ReportsController -->
<g id="node8" class="node"><title>ReportsController</title>
<polyline fill="none" stroke="black" points="67.9928,-143.203 181.993,-143.203 "/>
<path fill="none" stroke="black" d="M181.993,-143.203C187.993,-143.203 193.993,-149.203 193.993,-155.203"/>
<polyline fill="none" stroke="black" points="193.993,-155.203 193.993,-264.203 "/>
<path fill="none" stroke="black" d="M193.993,-264.203C193.993,-270.203 187.993,-276.203 181.993,-276.203"/>
<polyline fill="none" stroke="black" points="181.993,-276.203 67.9928,-276.203 "/>
<path fill="none" stroke="black" d="M67.9928,-276.203C61.9928,-276.203 55.9928,-270.203 55.9928,-264.203"/>
<polyline fill="none" stroke="black" points="55.9928,-264.203 55.9928,-155.203 "/>
<path fill="none" stroke="black" d="M55.9928,-155.203C55.9928,-149.203 61.9928,-143.203 67.9928,-143.203"/>
<text text-anchor="middle" x="124.993" y="-259.603" font-family="Times Roman,serif" font-size="14.00">ReportsController</text>
<polyline fill="none" stroke="black" points="55.9928,-251.203 193.993,-251.203 "/>
<text text-anchor="start" x="63.9928" y="-234.603" font-family="Times Roman,serif" font-size="14.00">delete</text>
<text text-anchor="start" x="63.9928" y="-217.603" font-family="Times Roman,serif" font-size="14.00">download</text>
<text text-anchor="start" x="63.9928" y="-200.603" font-family="Times Roman,serif" font-size="14.00">index</text>
<polyline fill="none" stroke="black" points="55.9928,-192.203 193.993,-192.203 "/>
<polyline fill="none" stroke="black" points="55.9928,-168.203 193.993,-168.203 "/>
<text text-anchor="start" x="63.9928" y="-151.603" font-family="Times Roman,serif" font-size="14.00">_layout</text>
</g>
<!-- ApplicationController&#45;&gt;ReportsController -->
<g id="edge12" class="edge"><title>ApplicationController&#45;&gt;ReportsController</title>
<path fill="none" stroke="black" d="M324.968,-525.604C321.656,-520.981 318.459,-516.34 315.411,-511.7 278.065,-454.867 286.501,-430.938 251.2,-372.813 230.941,-339.456 205.054,-304.934 182.004,-276.287"/>
</g>
<!-- StudentsController -->
<g id="node9" class="node"><title>StudentsController</title>
<polyline fill="none" stroke="black" points="645.758,-476.019 868.758,-476.019 "/>
<path fill="none" stroke="black" d="M868.758,-476.019C874.758,-476.019 880.758,-482.019 880.758,-488.019"/>
<polyline fill="none" stroke="black" points="880.758,-488.019 880.758,-665.019 "/>
<path fill="none" stroke="black" d="M880.758,-665.019C880.758,-671.019 874.758,-677.019 868.758,-677.019"/>
<polyline fill="none" stroke="black" points="868.758,-677.019 645.758,-677.019 "/>
<path fill="none" stroke="black" d="M645.758,-677.019C639.758,-677.019 633.758,-671.019 633.758,-665.019"/>
<polyline fill="none" stroke="black" points="633.758,-665.019 633.758,-488.019 "/>
<path fill="none" stroke="black" d="M633.758,-488.019C633.758,-482.019 639.758,-476.019 645.758,-476.019"/>
<text text-anchor="middle" x="757.258" y="-660.419" font-family="Times Roman,serif" font-size="14.00">StudentsController</text>
<polyline fill="none" stroke="black" points="633.758,-652.019 880.758,-652.019 "/>
<text text-anchor="start" x="641.758" y="-635.419" font-family="Times Roman,serif" font-size="14.00">_callback_before_145</text>
<text text-anchor="start" x="641.758" y="-618.419" font-family="Times Roman,serif" font-size="14.00">_one_time_conditions_valid_146?</text>
<text text-anchor="start" x="641.758" y="-601.419" font-family="Times Roman,serif" font-size="14.00">create</text>
<text text-anchor="start" x="641.758" y="-584.419" font-family="Times Roman,serif" font-size="14.00">destroy</text>
<text text-anchor="start" x="641.758" y="-567.419" font-family="Times Roman,serif" font-size="14.00">edit</text>
<text text-anchor="start" x="641.758" y="-550.419" font-family="Times Roman,serif" font-size="14.00">new</text>
<text text-anchor="start" x="641.758" y="-533.419" font-family="Times Roman,serif" font-size="14.00">update</text>
<polyline fill="none" stroke="black" points="633.758,-525.019 880.758,-525.019 "/>
<polyline fill="none" stroke="black" points="633.758,-501.019 880.758,-501.019 "/>
<text text-anchor="start" x="641.758" y="-484.419" font-family="Times Roman,serif" font-size="14.00">_layout</text>
</g>
<!-- ApplicationController&#45;&gt;StudentsController -->
<g id="edge14" class="edge"><title>ApplicationController&#45;&gt;StudentsController</title>
<path fill="none" stroke="black" d="M564.511,-622.437C587.22,-617.027 610.927,-611.38 633.634,-605.97"/>
</g>
<!-- TestsController -->
<g id="node10" class="node"><title>TestsController</title>
<polyline fill="none" stroke="black" points="13,-376.013 236,-376.013 "/>
<path fill="none" stroke="black" d="M236,-376.013C242,-376.013 248,-382.013 248,-388.013"/>
<polyline fill="none" stroke="black" points="248,-388.013 248,-752.013 "/>
<path fill="none" stroke="black" d="M248,-752.013C248,-758.013 242,-764.013 236,-764.013"/>
<polyline fill="none" stroke="black" points="236,-764.013 13,-764.013 "/>
<path fill="none" stroke="black" d="M13,-764.013C7,-764.013 1,-758.013 1,-752.013"/>
<polyline fill="none" stroke="black" points="1,-752.013 1,-388.013 "/>
<path fill="none" stroke="black" d="M1,-388.013C1,-382.013 7,-376.013 13,-376.013"/>
<text text-anchor="middle" x="124.5" y="-747.413" font-family="Times Roman,serif" font-size="14.00">TestsController</text>
<polyline fill="none" stroke="black" points="1,-739.013 248,-739.013 "/>
<text text-anchor="start" x="9" y="-722.413" font-family="Times Roman,serif" font-size="14.00">_callback_before_147</text>
<text text-anchor="start" x="9" y="-705.413" font-family="Times Roman,serif" font-size="14.00">_one_time_conditions_valid_148?</text>
<text text-anchor="start" x="9" y="-688.413" font-family="Times Roman,serif" font-size="14.00">_one_time_conditions_valid_152?</text>
<text text-anchor="start" x="9" y="-671.413" font-family="Times Roman,serif" font-size="14.00">_one_time_conditions_valid_156?</text>
<text text-anchor="start" x="9" y="-654.413" font-family="Times Roman,serif" font-size="14.00">_one_time_conditions_valid_160?</text>
<text text-anchor="start" x="9" y="-637.413" font-family="Times Roman,serif" font-size="14.00">archive</text>
<text text-anchor="start" x="9" y="-620.413" font-family="Times Roman,serif" font-size="14.00">archived</text>
<text text-anchor="start" x="9" y="-603.413" font-family="Times Roman,serif" font-size="14.00">create</text>
<text text-anchor="start" x="9" y="-586.413" font-family="Times Roman,serif" font-size="14.00">destroy</text>
<text text-anchor="start" x="9" y="-569.413" font-family="Times Roman,serif" font-size="14.00">edit</text>
<text text-anchor="start" x="9" y="-552.413" font-family="Times Roman,serif" font-size="14.00">index</text>
<text text-anchor="start" x="9" y="-535.413" font-family="Times Roman,serif" font-size="14.00">new</text>
<text text-anchor="start" x="9" y="-518.413" font-family="Times Roman,serif" font-size="14.00">stats</text>
<text text-anchor="start" x="9" y="-501.413" font-family="Times Roman,serif" font-size="14.00">tags</text>
<text text-anchor="start" x="9" y="-484.413" font-family="Times Roman,serif" font-size="14.00">update</text>
<polyline fill="none" stroke="black" points="1,-476.013 248,-476.013 "/>
<polyline fill="none" stroke="black" points="1,-452.013 248,-452.013 "/>
<text text-anchor="start" x="9" y="-435.413" font-family="Times Roman,serif" font-size="14.00">_layout</text>
<text text-anchor="start" x="9" y="-418.413" font-family="Times Roman,serif" font-size="14.00">clear_tags_cache</text>
<text text-anchor="start" x="9" y="-401.413" font-family="Times Roman,serif" font-size="14.00">fetch_test</text>
<text text-anchor="start" x="9" y="-384.413" font-family="Times Roman,serif" font-size="14.00">retrieve_top_tags</text>
</g>
<!-- ApplicationController&#45;&gt;TestsController -->
<g id="edge16" class="edge"><title>ApplicationController&#45;&gt;TestsController</title>
<path fill="none" stroke="black" d="M317.151,-619.894C294.453,-614.017 270.758,-607.882 248.063,-602.006"/>
</g>
<!-- TestSessionsController -->
<g id="node11" class="node"><title>TestSessionsController</title>
<polyline fill="none" stroke="black" points="330.611,-1.5 553.611,-1.5 "/>
<path fill="none" stroke="black" d="M553.611,-1.5C559.611,-1.5 565.611,-7.5 565.611,-13.5"/>
<polyline fill="none" stroke="black" points="565.611,-13.5 565.611,-496.5 "/>
<path fill="none" stroke="black" d="M565.611,-496.5C565.611,-502.5 559.611,-508.5 553.611,-508.5"/>
<polyline fill="none" stroke="black" points="553.611,-508.5 330.611,-508.5 "/>
<path fill="none" stroke="black" d="M330.611,-508.5C324.611,-508.5 318.611,-502.5 318.611,-496.5"/>
<polyline fill="none" stroke="black" points="318.611,-496.5 318.611,-13.5 "/>
<path fill="none" stroke="black" d="M318.611,-13.5C318.611,-7.5 324.611,-1.5 330.611,-1.5"/>
<text text-anchor="middle" x="442.111" y="-491.9" font-family="Times Roman,serif" font-size="14.00">TestSessionsController</text>
<polyline fill="none" stroke="black" points="318.611,-483.5 565.611,-483.5 "/>
<text text-anchor="start" x="326.611" y="-466.9" font-family="Times Roman,serif" font-size="14.00">_callback_before_163</text>
<text text-anchor="start" x="326.611" y="-449.9" font-family="Times Roman,serif" font-size="14.00">_one_time_conditions_valid_164?</text>
<text text-anchor="start" x="326.611" y="-432.9" font-family="Times Roman,serif" font-size="14.00">_one_time_conditions_valid_168?</text>
<text text-anchor="start" x="326.611" y="-415.9" font-family="Times Roman,serif" font-size="14.00">_one_time_conditions_valid_172?</text>
<text text-anchor="start" x="326.611" y="-398.9" font-family="Times Roman,serif" font-size="14.00">_one_time_conditions_valid_176?</text>
<text text-anchor="start" x="326.611" y="-381.9" font-family="Times Roman,serif" font-size="14.00">assign_student</text>
<text text-anchor="start" x="326.611" y="-364.9" font-family="Times Roman,serif" font-size="14.00">check_question</text>
<text text-anchor="start" x="326.611" y="-347.9" font-family="Times Roman,serif" font-size="14.00">close</text>
<text text-anchor="start" x="326.611" y="-330.9" font-family="Times Roman,serif" font-size="14.00">create</text>
<text text-anchor="start" x="326.611" y="-313.9" font-family="Times Roman,serif" font-size="14.00">destroy</text>
<text text-anchor="start" x="326.611" y="-296.9" font-family="Times Roman,serif" font-size="14.00">destroy_inactive</text>
<text text-anchor="start" x="326.611" y="-279.9" font-family="Times Roman,serif" font-size="14.00">end</text>
<text text-anchor="start" x="326.611" y="-262.9" font-family="Times Roman,serif" font-size="14.00">generate_report</text>
<text text-anchor="start" x="326.611" y="-245.9" font-family="Times Roman,serif" font-size="14.00">index</text>
<text text-anchor="start" x="326.611" y="-228.9" font-family="Times Roman,serif" font-size="14.00">new</text>
<text text-anchor="start" x="326.611" y="-211.9" font-family="Times Roman,serif" font-size="14.00">register</text>
<text text-anchor="start" x="326.611" y="-194.9" font-family="Times Roman,serif" font-size="14.00">report</text>
<text text-anchor="start" x="326.611" y="-177.9" font-family="Times Roman,serif" font-size="14.00">results</text>
<text text-anchor="start" x="326.611" y="-160.9" font-family="Times Roman,serif" font-size="14.00">start</text>
<text text-anchor="start" x="326.611" y="-143.9" font-family="Times Roman,serif" font-size="14.00">status</text>
<text text-anchor="start" x="326.611" y="-126.9" font-family="Times Roman,serif" font-size="14.00">watch</text>
<polyline fill="none" stroke="black" points="318.611,-118.5 565.611,-118.5 "/>
<polyline fill="none" stroke="black" points="318.611,-94.5 565.611,-94.5 "/>
<text text-anchor="start" x="326.611" y="-77.9" font-family="Times Roman,serif" font-size="14.00">_layout</text>
<text text-anchor="start" x="326.611" y="-60.9" font-family="Times Roman,serif" font-size="14.00">check_attempt_is_active</text>
<text text-anchor="start" x="326.611" y="-43.9" font-family="Times Roman,serif" font-size="14.00">check_private_key</text>
<text text-anchor="start" x="326.611" y="-26.9" font-family="Times Roman,serif" font-size="14.00">fetch_session</text>
<text text-anchor="start" x="326.611" y="-9.9" font-family="Times Roman,serif" font-size="14.00">fetch_test</text>
</g>
<!-- ApplicationController&#45;&gt;TestSessionsController -->
<g id="edge18" class="edge"><title>ApplicationController&#45;&gt;TestSessionsController</title>
<path fill="none" stroke="black" d="M441.216,-525.779C441.235,-520.104 441.254,-514.338 441.273,-508.503"/>
</g>
<!-- UserSessionsController -->
<g id="node12" class="node"><title>UserSessionsController</title>
<polyline fill="none" stroke="black" points="646.247,-137.532 869.247,-137.532 "/>
<path fill="none" stroke="black" d="M869.247,-137.532C875.247,-137.532 881.247,-143.532 881.247,-149.532"/>
<polyline fill="none" stroke="black" points="881.247,-149.532 881.247,-275.532 "/>
<path fill="none" stroke="black" d="M881.247,-275.532C881.247,-281.532 875.247,-287.532 869.247,-287.532"/>
<polyline fill="none" stroke="black" points="869.247,-287.532 646.247,-287.532 "/>
<path fill="none" stroke="black" d="M646.247,-287.532C640.247,-287.532 634.247,-281.532 634.247,-275.532"/>
<polyline fill="none" stroke="black" points="634.247,-275.532 634.247,-149.532 "/>
<path fill="none" stroke="black" d="M634.247,-149.532C634.247,-143.532 640.247,-137.532 646.247,-137.532"/>
<text text-anchor="middle" x="757.747" y="-270.932" font-family="Times Roman,serif" font-size="14.00">UserSessionsController</text>
<polyline fill="none" stroke="black" points="634.247,-262.532 881.247,-262.532 "/>
<text text-anchor="start" x="642.247" y="-245.932" font-family="Times Roman,serif" font-size="14.00">_one_time_conditions_valid_180?</text>
<text text-anchor="start" x="642.247" y="-228.932" font-family="Times Roman,serif" font-size="14.00">login</text>
<text text-anchor="start" x="642.247" y="-211.932" font-family="Times Roman,serif" font-size="14.00">logout</text>
<text text-anchor="start" x="642.247" y="-194.932" font-family="Times Roman,serif" font-size="14.00">profile</text>
<polyline fill="none" stroke="black" points="634.247,-186.532 881.247,-186.532 "/>
<polyline fill="none" stroke="black" points="634.247,-162.532 881.247,-162.532 "/>
<text text-anchor="start" x="642.247" y="-145.932" font-family="Times Roman,serif" font-size="14.00">_layout</text>
</g>
<!-- ApplicationController&#45;&gt;UserSessionsController -->
<g id="edge20" class="edge"><title>ApplicationController&#45;&gt;UserSessionsController</title>
<path fill="none" stroke="black" d="M557.989,-525.518C561.694,-520.901 565.312,-516.286 568.811,-511.7 624.228,-439.046 679.034,-349.818 715.229,-287.805"/>
</g>
</g>
</svg>
