<?xml version="1.0" encoding="UTF-8" standalone="no"?>
<!DOCTYPE svg PUBLIC "-//W3C//DTD SVG 1.1//EN"
 "http://www.w3.org/Graphics/SVG/1.1/DTD/svg11.dtd">
<!-- Generated by graphviz version 2.26.3 (20100126.1600)
 -->
<!-- Title: models_diagram Pages: 1 -->
<svg width="676pt" height="296pt"
 viewBox="0.00 0.00 676.00 296.00" xmlns="http://www.w3.org/2000/svg" xmlns:xlink="http://www.w3.org/1999/xlink">
<g id="graph1" class="graph" transform="scale(1 1) rotate(0) translate(4 292)">
<title>models_diagram</title>
<polygon fill="white" stroke="white" points="-4,5 -4,-292 673,-292 673,5 -4,5"/>
<!-- _diagram_info -->
<g id="node1" class="node"><title>_diagram_info</title>
<text text-anchor="start" x="8" y="-272.3" font-family="Times Roman,serif" font-size="13.00">Models diagram</text>
<text text-anchor="start" x="8" y="-256.3" font-family="Times Roman,serif" font-size="13.00">Date: Jun 17 2014 &#45; 20:27</text>
<text text-anchor="start" x="8" y="-240.3" font-family="Times Roman,serif" font-size="13.00">Generated by RailRoady 1.1.1</text>
<text text-anchor="start" x="8" y="-224.3" font-family="Times Roman,serif" font-size="13.00">http://railroady.prestonlee.com</text>
</g>
<!-- Group -->
<g id="node2" class="node"><title>Group</title>
<ellipse fill="none" stroke="black" cx="269" cy="-252" rx="40.9981" ry="18"/>
<text text-anchor="middle" x="269" y="-247.9" font-family="Times Roman,serif" font-size="14.00">Group</text>
</g>
<!-- Student -->
<g id="node6" class="node"><title>Student</title>
<ellipse fill="none" stroke="black" cx="269" cy="-162" rx="50.0315" ry="18"/>
<text text-anchor="middle" x="269" y="-157.9" font-family="Times Roman,serif" font-size="14.00">Student</text>
</g>
<!-- Group&#45;&gt;Student -->
<g id="edge2" class="edge"><title>Group&#45;&gt;Student</title>
<path fill="none" stroke="#b2ba14" d="M269,-225.615C269,-214.548 269,-201.658 269,-190.385"/>
<ellipse fill="none" stroke="#b2ba14" cx="269" cy="-229.787" rx="4" ry="4"/>
<polygon fill="#b2ba14" stroke="#b2ba14" points="269,-190.186 273.5,-180.186 269,-185.186 269,-180.186 269,-180.186 269,-180.186 269,-185.186 264.5,-180.186 269,-190.186 269,-190.186"/>
</g>
<!-- Question -->
<g id="node3" class="node"><title>Question</title>
<ellipse fill="none" stroke="black" cx="392" cy="-162" rx="54.8957" ry="18"/>
<text text-anchor="middle" x="392" y="-157.9" font-family="Times Roman,serif" font-size="14.00">Question</text>
</g>
<!-- QuestionStatus -->
<g id="node4" class="node"><title>QuestionStatus</title>
<ellipse fill="none" stroke="black" cx="400" cy="-18" rx="86.1654" ry="18"/>
<text text-anchor="middle" x="400" y="-13.9" font-family="Times Roman,serif" font-size="14.00">QuestionStatus</text>
</g>
<!-- TestAttempt -->
<g id="node8" class="node"><title>TestAttempt</title>
<ellipse fill="none" stroke="black" cx="400" cy="-90" rx="70.1831" ry="18"/>
<text text-anchor="middle" x="400" y="-85.9" font-family="Times Roman,serif" font-size="14.00">TestAttempt</text>
</g>
<!-- QuestionStatus&#45;&gt;TestAttempt -->
<g id="edge4" class="edge"><title>QuestionStatus&#45;&gt;TestAttempt</title>
<path fill="none" stroke="#0b1dc3" d="M406.625,-46.6901C406.795,-51.5904 406.792,-56.6792 406.615,-61.5726"/>
<polygon fill="#0b1dc3" stroke="#0b1dc3" points="406.606,-46.3934 410.467,-36.1297 406.291,-41.4033 405.976,-36.4133 405.976,-36.4133 405.976,-36.4133 406.291,-41.4033 401.485,-36.6968 406.606,-46.3934 406.606,-46.3934"/>
<polygon fill="#0b1dc3" stroke="#0b1dc3" points="406.597,-61.8522 401.462,-71.5411 406.275,-66.8418 405.952,-71.8314 405.952,-71.8314 405.952,-71.8314 406.275,-66.8418 410.443,-72.1217 406.597,-61.8522 406.597,-61.8522"/>
</g>
<!-- Report -->
<g id="node5" class="node"><title>Report</title>
<ellipse fill="none" stroke="black" cx="625" cy="-252" rx="43.0827" ry="18"/>
<text text-anchor="middle" x="625" y="-247.9" font-family="Times Roman,serif" font-size="14.00">Report</text>
</g>
<!-- Student&#45;&gt;TestAttempt -->
<g id="edge6" class="edge"><title>Student&#45;&gt;TestAttempt</title>
<path fill="none" stroke="#72f02e" d="M303.562,-143.004C321.322,-133.243 343.022,-121.316 361.337,-111.25"/>
<ellipse fill="none" stroke="#72f02e" cx="299.967" cy="-144.98" rx="4.00002" ry="4.00002"/>
<polygon fill="#72f02e" stroke="#72f02e" points="361.531,-111.143 372.462,-110.27 365.913,-108.735 370.295,-106.327 370.295,-106.327 370.295,-106.327 365.913,-108.735 368.127,-102.383 361.531,-111.143 361.531,-111.143"/>
</g>
<!-- Test -->
<g id="node7" class="node"><title>Test</title>
<ellipse fill="none" stroke="black" cx="421" cy="-252" rx="30.0736" ry="18"/>
<text text-anchor="middle" x="421" y="-247.9" font-family="Times Roman,serif" font-size="14.00">Test</text>
</g>
<!-- Test&#45;&gt;Question -->
<g id="edge8" class="edge"><title>Test&#45;&gt;Question</title>
<path fill="none" stroke="#08d2d4" d="M412.754,-226.407C409.065,-214.962 404.71,-201.444 400.943,-189.755"/>
<ellipse fill="none" stroke="#08d2d4" cx="414.044" cy="-230.412" rx="4.00001" ry="4.00001"/>
<polygon fill="#08d2d4" stroke="#08d2d4" points="400.884,-189.57 402.1,-178.672 399.35,-184.811 397.817,-180.052 397.817,-180.052 397.817,-180.052 399.35,-184.811 393.534,-181.432 400.884,-189.57 400.884,-189.57"/>
</g>
<!-- TestSession -->
<g id="node9" class="node"><title>TestSession</title>
<ellipse fill="none" stroke="black" cx="531" cy="-162" rx="66.2071" ry="18"/>
<text text-anchor="middle" x="531" y="-157.9" font-family="Times Roman,serif" font-size="14.00">TestSession</text>
</g>
<!-- Test&#45;&gt;TestSession -->
<g id="edge10" class="edge"><title>Test&#45;&gt;TestSession</title>
<path fill="none" stroke="#14db22" d="M445.404,-232.033C461.991,-218.462 484.022,-200.437 501.579,-186.072"/>
<ellipse fill="none" stroke="#14db22" cx="442.26" cy="-234.605" rx="4.00002" ry="4.00002"/>
<polygon fill="#14db22" stroke="#14db22" points="502.055,-185.682 512.645,-182.832 505.925,-182.516 509.795,-179.35 509.795,-179.35 509.795,-179.35 505.925,-182.516 506.945,-175.867 502.055,-185.682 502.055,-185.682"/>
</g>
<!-- TestAttempt&#45;&gt;QuestionStatus -->
<g id="edge12" class="edge"><title>TestAttempt&#45;&gt;QuestionStatus</title>
<path fill="none" stroke="#a043bc" d="M393.478,-63.8144C393.215,-58.2775 393.179,-52.4053 393.372,-46.7785"/>
<ellipse fill="none" stroke="#a043bc" cx="393.764" cy="-67.8414" rx="4" ry="4"/>
<polygon fill="#a043bc" stroke="#a043bc" points="393.396,-46.3936 398.515,-36.6957 393.71,-41.4034 394.024,-36.4133 394.024,-36.4133 394.024,-36.4133 393.71,-41.4034 389.533,-36.1308 393.396,-46.3936 393.396,-46.3936"/>
</g>
<!-- TestSession&#45;&gt;TestAttempt -->
<g id="edge14" class="edge"><title>TestSession&#45;&gt;TestAttempt</title>
<path fill="none" stroke="#c1f727" d="M494.59,-141.988C477.193,-132.426 456.359,-120.976 438.678,-111.258"/>
<ellipse fill="none" stroke="#c1f727" cx="498.096" cy="-143.915" rx="4.00002" ry="4.00002"/>
<polygon fill="#c1f727" stroke="#c1f727" points="438.518,-111.17 431.922,-102.41 434.136,-108.762 429.754,-106.353 429.754,-106.353 429.754,-106.353 434.136,-108.762 427.587,-110.297 438.518,-111.17 438.518,-111.17"/>
</g>
<!-- User -->
<g id="node10" class="node"><title>User</title>
<ellipse fill="none" stroke="black" cx="531" cy="-252" rx="32.8565" ry="18"/>
<text text-anchor="middle" x="531" y="-247.9" font-family="Times Roman,serif" font-size="14.00">User</text>
</g>
<!-- User&#45;&gt;TestSession -->
<g id="edge16" class="edge"><title>User&#45;&gt;TestSession</title>
<path fill="none" stroke="#156e0d" d="M531,-225.615C531,-214.548 531,-201.658 531,-190.385"/>
<ellipse fill="none" stroke="#156e0d" cx="531" cy="-229.787" rx="4" ry="4"/>
<polygon fill="#156e0d" stroke="#156e0d" points="531,-190.186 535.5,-180.186 531,-185.186 531,-180.186 531,-180.186 531,-180.186 531,-185.186 526.5,-180.186 531,-190.186 531,-190.186"/>
</g>
</g>
</svg>
