<?xml version="1.0" encoding="UTF-8" standalone="no"?>
<!DOCTYPE svg PUBLIC "-//W3C//DTD SVG 1.1//EN"
 "http://www.w3.org/Graphics/SVG/1.1/DTD/svg11.dtd">
<!-- Generated by graphviz version 2.26.3 (20100126.1600)
 -->
<!-- Title: models_diagram Pages: 1 -->
<svg width="1156pt" height="934pt"
 viewBox="0.00 0.00 1156.00 934.00" xmlns="http://www.w3.org/2000/svg" xmlns:xlink="http://www.w3.org/1999/xlink">
<g id="graph1" class="graph" transform="scale(1 1) rotate(0) translate(4 930)">
<title>models_diagram</title>
<polygon fill="white" stroke="white" points="-4,5 -4,-930 1153,-930 1153,5 -4,5"/>
<!-- _diagram_info -->
<g id="node1" class="node"><title>_diagram_info</title>
<text text-anchor="start" x="8" y="-852.3" font-family="Times Roman,serif" font-size="13.00">Models diagram</text>
<text text-anchor="start" x="8" y="-836.3" font-family="Times Roman,serif" font-size="13.00">Date: Jun 17 2014 &#45; 20:27</text>
<text text-anchor="start" x="8" y="-820.3" font-family="Times Roman,serif" font-size="13.00">Generated by RailRoady 1.1.1</text>
<text text-anchor="start" x="8" y="-804.3" font-family="Times Roman,serif" font-size="13.00">http://railroady.prestonlee.com</text>
</g>
<!-- Group -->
<g id="node2" class="node"><title>Group</title>
<polyline fill="none" stroke="black" points="240,-773 422,-773 "/>
<path fill="none" stroke="black" d="M422,-773C428,-773 434,-779 434,-785"/>
<polyline fill="none" stroke="black" points="434,-785 434,-879 "/>
<path fill="none" stroke="black" d="M434,-879C434,-885 428,-891 422,-891"/>
<polyline fill="none" stroke="black" points="422,-891 240,-891 "/>
<path fill="none" stroke="black" d="M240,-891C234,-891 228,-885 228,-879"/>
<polyline fill="none" stroke="black" points="228,-879 228,-785 "/>
<path fill="none" stroke="black" d="M228,-785C228,-779 234,-773 240,-773"/>
<text text-anchor="middle" x="331" y="-874.4" font-family="Times Roman,serif" font-size="14.00">Group</text>
<polyline fill="none" stroke="black" points="228,-866 434,-866 "/>
<text text-anchor="start" x="236" y="-849.4" font-family="Times Roman,serif" font-size="14.00">_id :Moped::BSON::ObjectId</text>
<text text-anchor="start" x="236" y="-832.4" font-family="Times Roman,serif" font-size="14.00">_slugs :Array</text>
<text text-anchor="start" x="236" y="-815.4" font-family="Times Roman,serif" font-size="14.00">created_at :Time</text>
<text text-anchor="start" x="236" y="-798.4" font-family="Times Roman,serif" font-size="14.00">name :String</text>
<text text-anchor="start" x="236" y="-781.4" font-family="Times Roman,serif" font-size="14.00">updated_at :Time</text>
</g>
<!-- Student -->
<g id="node6" class="node"><title>Student</title>
<polyline fill="none" stroke="black" points="240,-481.5 422,-481.5 "/>
<path fill="none" stroke="black" d="M422,-481.5C428,-481.5 434,-487.5 434,-493.5"/>
<polyline fill="none" stroke="black" points="434,-493.5 434,-604.5 "/>
<path fill="none" stroke="black" d="M434,-604.5C434,-610.5 428,-616.5 422,-616.5"/>
<polyline fill="none" stroke="black" points="422,-616.5 240,-616.5 "/>
<path fill="none" stroke="black" d="M240,-616.5C234,-616.5 228,-610.5 228,-604.5"/>
<polyline fill="none" stroke="black" points="228,-604.5 228,-493.5 "/>
<path fill="none" stroke="black" d="M228,-493.5C228,-487.5 234,-481.5 240,-481.5"/>
<text text-anchor="middle" x="331" y="-599.9" font-family="Times Roman,serif" font-size="14.00">Student</text>
<polyline fill="none" stroke="black" points="228,-591.5 434,-591.5 "/>
<text text-anchor="start" x="236" y="-574.9" font-family="Times Roman,serif" font-size="14.00">_id :Moped::BSON::ObjectId</text>
<text text-anchor="start" x="236" y="-557.9" font-family="Times Roman,serif" font-size="14.00">_slugs :Array</text>
<text text-anchor="start" x="236" y="-540.9" font-family="Times Roman,serif" font-size="14.00">created_at :Time</text>
<text text-anchor="start" x="236" y="-523.9" font-family="Times Roman,serif" font-size="14.00">fullname :String</text>
<text text-anchor="start" x="236" y="-506.9" font-family="Times Roman,serif" font-size="14.00">group_id :Object</text>
<text text-anchor="start" x="236" y="-489.9" font-family="Times Roman,serif" font-size="14.00">updated_at :Time</text>
</g>
<!-- Group&#45;&gt;Student -->
<g id="edge2" class="edge"><title>Group&#45;&gt;Student</title>
<path fill="none" stroke="#6af185" d="M331,-764.496C331,-723.125 331,-670.012 331,-626.867"/>
<ellipse fill="none" stroke="#6af185" cx="331" cy="-768.674" rx="4" ry="4"/>
<polygon fill="#6af185" stroke="#6af185" points="331,-626.694 335.5,-616.694 331,-621.694 331,-616.694 331,-616.694 331,-616.694 331,-621.694 326.5,-616.694 331,-626.694 331,-626.694"/>
</g>
<!-- Question -->
<g id="node3" class="node"><title>Question</title>
<polyline fill="none" stroke="black" points="464,-464.5 646,-464.5 "/>
<path fill="none" stroke="black" d="M646,-464.5C652,-464.5 658,-470.5 658,-476.5"/>
<polyline fill="none" stroke="black" points="658,-476.5 658,-621.5 "/>
<path fill="none" stroke="black" d="M658,-621.5C658,-627.5 652,-633.5 646,-633.5"/>
<polyline fill="none" stroke="black" points="646,-633.5 464,-633.5 "/>
<path fill="none" stroke="black" d="M464,-633.5C458,-633.5 452,-627.5 452,-621.5"/>
<polyline fill="none" stroke="black" points="452,-621.5 452,-476.5 "/>
<path fill="none" stroke="black" d="M452,-476.5C452,-470.5 458,-464.5 464,-464.5"/>
<text text-anchor="middle" x="555" y="-616.9" font-family="Times Roman,serif" font-size="14.00">Question</text>
<polyline fill="none" stroke="black" points="452,-608.5 658,-608.5 "/>
<text text-anchor="start" x="460" y="-591.9" font-family="Times Roman,serif" font-size="14.00">_id :Moped::BSON::ObjectId</text>
<text text-anchor="start" x="460" y="-574.9" font-family="Times Roman,serif" font-size="14.00">answer :Array</text>
<text text-anchor="start" x="460" y="-557.9" font-family="Times Roman,serif" font-size="14.00">created_at :Time</text>
<text text-anchor="start" x="460" y="-540.9" font-family="Times Roman,serif" font-size="14.00">test_id :Object</text>
<text text-anchor="start" x="460" y="-523.9" font-family="Times Roman,serif" font-size="14.00">text :String</text>
<text text-anchor="start" x="460" y="-506.9" font-family="Times Roman,serif" font-size="14.00">type :String</text>
<text text-anchor="start" x="460" y="-489.9" font-family="Times Roman,serif" font-size="14.00">updated_at :Time</text>
<text text-anchor="start" x="460" y="-472.9" font-family="Times Roman,serif" font-size="14.00">variants :Array</text>
</g>
<!-- QuestionStatus -->
<g id="node4" class="node"><title>QuestionStatus</title>
<polyline fill="none" stroke="black" points="485,-0.5 667,-0.5 "/>
<path fill="none" stroke="black" d="M667,-0.5C673,-0.5 679,-6.5 679,-12.5"/>
<polyline fill="none" stroke="black" points="679,-12.5 679,-157.5 "/>
<path fill="none" stroke="black" d="M679,-157.5C679,-163.5 673,-169.5 667,-169.5"/>
<polyline fill="none" stroke="black" points="667,-169.5 485,-169.5 "/>
<path fill="none" stroke="black" d="M485,-169.5C479,-169.5 473,-163.5 473,-157.5"/>
<polyline fill="none" stroke="black" points="473,-157.5 473,-12.5 "/>
<path fill="none" stroke="black" d="M473,-12.5C473,-6.5 479,-0.5 485,-0.5"/>
<text text-anchor="middle" x="576" y="-152.9" font-family="Times Roman,serif" font-size="14.00">QuestionStatus</text>
<polyline fill="none" stroke="black" points="473,-144.5 679,-144.5 "/>
<text text-anchor="start" x="481" y="-127.9" font-family="Times Roman,serif" font-size="14.00">_id :Moped::BSON::ObjectId</text>
<text text-anchor="start" x="481" y="-110.9" font-family="Times Roman,serif" font-size="14.00">answer :String</text>
<text text-anchor="start" x="481" y="-93.9" font-family="Times Roman,serif" font-size="14.00">answered_at :DateTime</text>
<text text-anchor="start" x="481" y="-76.9" font-family="Times Roman,serif" font-size="14.00">correctness_level :Float</text>
<text text-anchor="start" x="481" y="-59.9" font-family="Times Roman,serif" font-size="14.00">created_at :Time</text>
<text text-anchor="start" x="481" y="-42.9" font-family="Times Roman,serif" font-size="14.00">is_answered :Boolean</text>
<text text-anchor="start" x="481" y="-25.9" font-family="Times Roman,serif" font-size="14.00">question_id :Object</text>
<text text-anchor="start" x="481" y="-8.9" font-family="Times Roman,serif" font-size="14.00">updated_at :Time</text>
</g>
<!-- TestAttempt -->
<g id="node8" class="node"><title>TestAttempt</title>
<polyline fill="none" stroke="black" points="485,-207 667,-207 "/>
<path fill="none" stroke="black" d="M667,-207C673,-207 679,-213 679,-219"/>
<polyline fill="none" stroke="black" points="679,-219 679,-347 "/>
<path fill="none" stroke="black" d="M679,-347C679,-353 673,-359 667,-359"/>
<polyline fill="none" stroke="black" points="667,-359 485,-359 "/>
<path fill="none" stroke="black" d="M485,-359C479,-359 473,-353 473,-347"/>
<polyline fill="none" stroke="black" points="473,-347 473,-219 "/>
<path fill="none" stroke="black" d="M473,-219C473,-213 479,-207 485,-207"/>
<text text-anchor="middle" x="576" y="-342.4" font-family="Times Roman,serif" font-size="14.00">TestAttempt</text>
<polyline fill="none" stroke="black" points="473,-334 679,-334 "/>
<text text-anchor="start" x="481" y="-317.4" font-family="Times Roman,serif" font-size="14.00">_id :Moped::BSON::ObjectId</text>
<text text-anchor="start" x="481" y="-300.4" font-family="Times Roman,serif" font-size="14.00">activate_time :DateTime</text>
<text text-anchor="start" x="481" y="-283.4" font-family="Times Roman,serif" font-size="14.00">created_at :Time</text>
<text text-anchor="start" x="481" y="-266.4" font-family="Times Roman,serif" font-size="14.00">private_key :String</text>
<text text-anchor="start" x="481" y="-249.4" font-family="Times Roman,serif" font-size="14.00">student_id :Object</text>
<text text-anchor="start" x="481" y="-232.4" font-family="Times Roman,serif" font-size="14.00">test_session_id :Object</text>
<text text-anchor="start" x="481" y="-215.4" font-family="Times Roman,serif" font-size="14.00">updated_at :Time</text>
</g>
<!-- QuestionStatus&#45;&gt;TestAttempt -->
<g id="edge4" class="edge"><title>QuestionStatus&#45;&gt;TestAttempt</title>
<path fill="none" stroke="#973340" d="M582.745,-179.877C582.759,-185.498 582.744,-191.137 582.7,-196.72"/>
<polygon fill="#973340" stroke="#973340" points="582.744,-179.795 587.188,-169.77 582.716,-174.795 582.688,-169.795 582.688,-169.795 582.688,-169.795 582.716,-174.795 578.188,-169.82 582.744,-179.795 582.744,-179.795"/>
<polygon fill="#973340" stroke="#973340" points="582.7,-196.732 578.09,-206.681 582.645,-201.732 582.589,-206.731 582.589,-206.731 582.589,-206.731 582.645,-201.732 587.089,-206.781 582.7,-196.732 582.7,-196.732"/>
</g>
<!-- Report -->
<g id="node5" class="node"><title>Report</title>
<polyline fill="none" stroke="black" points="954,-773 1136,-773 "/>
<path fill="none" stroke="black" d="M1136,-773C1142,-773 1148,-779 1148,-785"/>
<polyline fill="none" stroke="black" points="1148,-785 1148,-879 "/>
<path fill="none" stroke="black" d="M1148,-879C1148,-885 1142,-891 1136,-891"/>
<polyline fill="none" stroke="black" points="1136,-891 954,-891 "/>
<path fill="none" stroke="black" d="M954,-891C948,-891 942,-885 942,-879"/>
<polyline fill="none" stroke="black" points="942,-879 942,-785 "/>
<path fill="none" stroke="black" d="M942,-785C942,-779 948,-773 954,-773"/>
<text text-anchor="middle" x="1045" y="-874.4" font-family="Times Roman,serif" font-size="14.00">Report</text>
<polyline fill="none" stroke="black" points="942,-866 1148,-866 "/>
<text text-anchor="start" x="950" y="-849.4" font-family="Times Roman,serif" font-size="14.00">_id :Moped::BSON::ObjectId</text>
<text text-anchor="start" x="950" y="-832.4" font-family="Times Roman,serif" font-size="14.00">file_name :String</text>
<text text-anchor="start" x="950" y="-815.4" font-family="Times Roman,serif" font-size="14.00">filesize :Integer</text>
<text text-anchor="start" x="950" y="-798.4" font-family="Times Roman,serif" font-size="14.00">title :String</text>
<text text-anchor="start" x="950" y="-781.4" font-family="Times Roman,serif" font-size="14.00">type :Symbol</text>
</g>
<!-- Student&#45;&gt;TestAttempt -->
<g id="edge6" class="edge"><title>Student&#45;&gt;TestAttempt</title>
<path fill="none" stroke="#1287cb" d="M380.093,-474.669C398.576,-448.736 420.575,-420.11 443,-396 452.382,-385.913 462.626,-375.845 473.131,-366.107"/>
<ellipse fill="none" stroke="#1287cb" cx="377.782" cy="-477.935" rx="4.00002" ry="4.00002"/>
<polygon fill="#1287cb" stroke="#1287cb" points="473.437,-365.827 483.854,-362.4 477.127,-362.453 480.817,-359.079 480.817,-359.079 480.817,-359.079 477.127,-362.453 477.781,-355.758 473.437,-365.827 473.437,-365.827"/>
</g>
<!-- Test -->
<g id="node7" class="node"><title>Test</title>
<polyline fill="none" stroke="black" points="485,-756 667,-756 "/>
<path fill="none" stroke="black" d="M667,-756C673,-756 679,-762 679,-768"/>
<polyline fill="none" stroke="black" points="679,-768 679,-896 "/>
<path fill="none" stroke="black" d="M679,-896C679,-902 673,-908 667,-908"/>
<polyline fill="none" stroke="black" points="667,-908 485,-908 "/>
<path fill="none" stroke="black" d="M485,-908C479,-908 473,-902 473,-896"/>
<polyline fill="none" stroke="black" points="473,-896 473,-768 "/>
<path fill="none" stroke="black" d="M473,-768C473,-762 479,-756 485,-756"/>
<text text-anchor="middle" x="576" y="-891.4" font-family="Times Roman,serif" font-size="14.00">Test</text>
<polyline fill="none" stroke="black" points="473,-883 679,-883 "/>
<text text-anchor="start" x="481" y="-866.4" font-family="Times Roman,serif" font-size="14.00">_id :Moped::BSON::ObjectId</text>
<text text-anchor="start" x="481" y="-849.4" font-family="Times Roman,serif" font-size="14.00">created_at :Time</text>
<text text-anchor="start" x="481" y="-832.4" font-family="Times Roman,serif" font-size="14.00">description :String</text>
<text text-anchor="start" x="481" y="-815.4" font-family="Times Roman,serif" font-size="14.00">is_archived :Boolean</text>
<text text-anchor="start" x="481" y="-798.4" font-family="Times Roman,serif" font-size="14.00">tags :Array</text>
<text text-anchor="start" x="481" y="-781.4" font-family="Times Roman,serif" font-size="14.00">title :String</text>
<text text-anchor="start" x="481" y="-764.4" font-family="Times Roman,serif" font-size="14.00">updated_at :Time</text>
</g>
<!-- Test&#45;&gt;Question -->
<g id="edge8" class="edge"><title>Test&#45;&gt;Question</title>
<path fill="none" stroke="#fa39c1" d="M569.746,-747.717C567.321,-715.045 564.534,-677.479 562.04,-643.866"/>
<ellipse fill="none" stroke="#fa39c1" cx="570.049" cy="-751.8" rx="4" ry="4"/>
<polygon fill="#fa39c1" stroke="#fa39c1" points="562.016,-643.544 565.763,-633.238 561.646,-638.558 561.276,-633.571 561.276,-633.571 561.276,-633.571 561.646,-638.558 556.788,-633.904 562.016,-643.544 562.016,-643.544"/>
</g>
<!-- TestSession -->
<g id="node9" class="node"><title>TestSession</title>
<polyline fill="none" stroke="black" points="688,-396.5 954,-396.5 "/>
<path fill="none" stroke="black" d="M954,-396.5C960,-396.5 966,-402.5 966,-408.5"/>
<polyline fill="none" stroke="black" points="966,-408.5 966,-689.5 "/>
<path fill="none" stroke="black" d="M966,-689.5C966,-695.5 960,-701.5 954,-701.5"/>
<polyline fill="none" stroke="black" points="954,-701.5 688,-701.5 "/>
<path fill="none" stroke="black" d="M688,-701.5C682,-701.5 676,-695.5 676,-689.5"/>
<polyline fill="none" stroke="black" points="676,-689.5 676,-408.5 "/>
<path fill="none" stroke="black" d="M676,-408.5C676,-402.5 682,-396.5 688,-396.5"/>
<text text-anchor="middle" x="821" y="-684.9" font-family="Times Roman,serif" font-size="14.00">TestSession</text>
<polyline fill="none" stroke="black" points="676,-676.5 966,-676.5 "/>
<text text-anchor="start" x="684" y="-659.9" font-family="Times Roman,serif" font-size="14.00">_id :Moped::BSON::ObjectId</text>
<text text-anchor="start" x="684" y="-642.9" font-family="Times Roman,serif" font-size="14.00">created_at :Time</text>
<text text-anchor="start" x="684" y="-625.9" font-family="Times Roman,serif" font-size="14.00">description :String</text>
<text text-anchor="start" x="684" y="-608.9" font-family="Times Roman,serif" font-size="14.00">end_time :DateTime</text>
<text text-anchor="start" x="684" y="-591.9" font-family="Times Roman,serif" font-size="14.00">groups_array :Array</text>
<text text-anchor="start" x="684" y="-574.9" font-family="Times Roman,serif" font-size="14.00">is_closed :Boolean</text>
<text text-anchor="start" x="684" y="-557.9" font-family="Times Roman,serif" font-size="14.00">mark_partially_as_valid :Boolean</text>
<text text-anchor="start" x="684" y="-540.9" font-family="Times Roman,serif" font-size="14.00">max_points :Integer</text>
<text text-anchor="start" x="684" y="-523.9" font-family="Times Roman,serif" font-size="14.00">questions_count :Integer</text>
<text text-anchor="start" x="684" y="-506.9" font-family="Times Roman,serif" font-size="14.00">report_correct_status :Boolean</text>
<text text-anchor="start" x="684" y="-489.9" font-family="Times Roman,serif" font-size="14.00">secret_code :String</text>
<text text-anchor="start" x="684" y="-472.9" font-family="Times Roman,serif" font-size="14.00">test_id :Object</text>
<text text-anchor="start" x="684" y="-455.9" font-family="Times Roman,serif" font-size="14.00">time_per_student :Integer</text>
<text text-anchor="start" x="684" y="-438.9" font-family="Times Roman,serif" font-size="14.00">updated_at :Time</text>
<text text-anchor="start" x="684" y="-421.9" font-family="Times Roman,serif" font-size="14.00">use_partially_correct_answers :Boolean</text>
<text text-anchor="start" x="684" y="-404.9" font-family="Times Roman,serif" font-size="14.00">user_id :Object</text>
</g>
<!-- Test&#45;&gt;TestSession -->
<g id="edge10" class="edge"><title>Test&#45;&gt;TestSession</title>
<path fill="none" stroke="#c87ac9" d="M647.514,-749.394C658.532,-736.668 670.219,-723.168 682.116,-709.425"/>
<ellipse fill="none" stroke="#c87ac9" cx="644.596" cy="-752.765" rx="4.00002" ry="4.00002"/>
<polygon fill="#c87ac9" stroke="#c87ac9" points="682.199,-709.329 692.146,-704.714 685.472,-705.549 688.744,-701.769 688.744,-701.769 688.744,-701.769 685.472,-705.549 685.342,-698.824 682.199,-709.329 682.199,-709.329"/>
</g>
<!-- TestAttempt&#45;&gt;QuestionStatus -->
<g id="edge12" class="edge"><title>TestAttempt&#45;&gt;QuestionStatus</title>
<path fill="none" stroke="#b52fbb" d="M569.314,-198.448C569.26,-192.368 569.24,-186.215 569.255,-180.081"/>
<ellipse fill="none" stroke="#b52fbb" cx="569.364" cy="-202.732" rx="4" ry="4"/>
<polygon fill="#b52fbb" stroke="#b52fbb" points="569.256,-179.795 573.812,-169.82 569.284,-174.795 569.312,-169.795 569.312,-169.795 569.312,-169.795 569.284,-174.795 564.812,-169.77 569.256,-179.795 569.256,-179.795"/>
</g>
<!-- TestSession&#45;&gt;TestAttempt -->
<g id="edge14" class="edge"><title>TestSession&#45;&gt;TestAttempt</title>
<path fill="none" stroke="#56af5b" d="M674.777,-390.243C667.405,-382.24 660.153,-374.366 653.132,-366.744"/>
<ellipse fill="none" stroke="#56af5b" cx="677.547" cy="-393.251" rx="4.00002" ry="4.00002"/>
<polygon fill="#56af5b" stroke="#56af5b" points="652.968,-366.565 649.503,-356.161 649.58,-362.887 646.193,-359.21 646.193,-359.21 646.193,-359.21 649.58,-362.887 642.883,-362.258 652.968,-366.565 652.968,-366.565"/>
</g>
<!-- User -->
<g id="node10" class="node"><title>User</title>
<polyline fill="none" stroke="black" points="730,-739 912,-739 "/>
<path fill="none" stroke="black" d="M912,-739C918,-739 924,-745 924,-751"/>
<polyline fill="none" stroke="black" points="924,-751 924,-913 "/>
<path fill="none" stroke="black" d="M924,-913C924,-919 918,-925 912,-925"/>
<polyline fill="none" stroke="black" points="912,-925 730,-925 "/>
<path fill="none" stroke="black" d="M730,-925C724,-925 718,-919 718,-913"/>
<polyline fill="none" stroke="black" points="718,-913 718,-751 "/>
<path fill="none" stroke="black" d="M718,-751C718,-745 724,-739 730,-739"/>
<text text-anchor="middle" x="821" y="-908.4" font-family="Times Roman,serif" font-size="14.00">User</text>
<polyline fill="none" stroke="black" points="718,-900 924,-900 "/>
<text text-anchor="start" x="726" y="-883.4" font-family="Times Roman,serif" font-size="14.00">_id :Moped::BSON::ObjectId</text>
<text text-anchor="start" x="726" y="-866.4" font-family="Times Roman,serif" font-size="14.00">_slugs :Array</text>
<text text-anchor="start" x="726" y="-849.4" font-family="Times Roman,serif" font-size="14.00">created_at :Time</text>
<text text-anchor="start" x="726" y="-832.4" font-family="Times Roman,serif" font-size="14.00">fullname :String</text>
<text text-anchor="start" x="726" y="-815.4" font-family="Times Roman,serif" font-size="14.00">login :String</text>
<text text-anchor="start" x="726" y="-798.4" font-family="Times Roman,serif" font-size="14.00">password_hash :String</text>
<text text-anchor="start" x="726" y="-781.4" font-family="Times Roman,serif" font-size="14.00">password_salt :String</text>
<text text-anchor="start" x="726" y="-764.4" font-family="Times Roman,serif" font-size="14.00">permissions :Array</text>
<text text-anchor="start" x="726" y="-747.4" font-family="Times Roman,serif" font-size="14.00">updated_at :Time</text>
</g>
<!-- User&#45;&gt;TestSession -->
<g id="edge16" class="edge"><title>User&#45;&gt;TestSession</title>
<path fill="none" stroke="#054301" d="M821,-730.941C821,-724.637 821,-718.215 821,-711.733"/>
<ellipse fill="none" stroke="#054301" cx="821" cy="-734.943" rx="4" ry="4"/>
<polygon fill="#054301" stroke="#054301" points="821,-711.504 825.5,-701.504 821,-706.504 821,-701.504 821,-701.504 821,-701.504 821,-706.504 816.5,-701.504 821,-711.504 821,-711.504"/>
</g>
</g>
</svg>
